# xmcd CD database file
#
# Track frame offsets:
#	150
#	14705
#	30352
#	47780
#	60947
#	69552
#	82880
#	94452
#	130160
#	141945
#	153967
#	167705
#	180010
#	204740
#	213812
#	242697
#	261784
#	275662
#	288207
#	299670
#	310835
#	320530
#	334737
#
# Disc length: 4724 seconds
#
# Revision: 2
# Processed by: cddbd v1.5.1PL2 Copyright (c) Steve Scherf et al.
# Submitted via: CDex 1.51
#
DISCID=4e127217
DTITLE=Bill Ramsey - Caldonia And More
DYEAR=1997
DGENRE=Jazz
TTITLE0=Caldonia
TTITLE1=The Outskirts Of Town
TTITLE2=Goin' To Chicago
TTITLE3=Frankie And Johnny
TTITLE4=St. James Infirmary
TTITLE5=Caldonia
TTITLE6=Big Fat Mama
TTITLE7=When The Saints Go Marching In
TTITLE8=The Late, Late Show
TTITLE9=The More I See You
TTITLE10=Where Or When
TTITLE11=Worksong
TTITLE12=Sunny
TTITLE13=I'm Gonna Sit Right Down And Write Myself A Letter
TTITLE14=Ellington Medley (I'm Beginning To See The Light, Sophisticated Lady, Satin Doll)
TTITLE15=Misty
TTITLE16=Route 66
TTITLE17=Honeysuckle Rose
TTITLE18=Ornithologie, How High The Moon
TTITLE19=The Girl From Ipanema
TTITLE20=There Will Never Be Another You
TTITLE21=Kansas City
TTITLE22=The Shadow Of Your Smile
EXTD=YEAR: 1997
EXTT0=
EXTT1=
EXTT2=
EXTT3=
EXTT4=
EXTT5=
EXTT6=
EXTT7=
EXTT8=
EXTT9=
EXTT10=
EXTT11=
EXTT12=
EXTT13=
EXTT14=
EXTT15=
EXTT16=
EXTT17=
EXTT18=
EXTT19=
EXTT20=
EXTT21=
EXTT22=
PLAYORDER=
